<svg width="20" height="21" viewBox="0 0 20 21" fill="none" xmlns="http://www.w3.org/2000/svg">
<g clip-path="url(#clip0_13332_1526)">
<path d="M10 2.12158C12.6719 2.12158 12.9883 2.1333 14.0391 2.18018C15.0156 2.22314 15.543 2.38721 15.8945 2.52393C16.3594 2.70361 16.6953 2.92236 17.043 3.27002C17.3945 3.62158 17.6094 3.95361 17.7891 4.41846C17.9258 4.77002 18.0898 5.30127 18.1328 6.27393C18.1797 7.32861 18.1914 7.64502 18.1914 10.313C18.1914 12.9849 18.1797 13.3013 18.1328 14.3521C18.0898 15.3286 17.9258 15.856 17.7891 16.2075C17.6094 16.6724 17.3906 17.0083 17.043 17.356C16.6914 17.7075 16.3594 17.9224 15.8945 18.1021C15.543 18.2388 15.0117 18.4028 14.0391 18.4458C12.9844 18.4927 12.668 18.5044 10 18.5044C7.32813 18.5044 7.01172 18.4927 5.96094 18.4458C4.98438 18.4028 4.45703 18.2388 4.10547 18.1021C3.64063 17.9224 3.30469 17.7036 2.95703 17.356C2.60547 17.0044 2.39063 16.6724 2.21094 16.2075C2.07422 15.856 1.91016 15.3247 1.86719 14.3521C1.82031 13.2974 1.80859 12.981 1.80859 10.313C1.80859 7.64111 1.82031 7.32471 1.86719 6.27393C1.91016 5.29736 2.07422 4.77002 2.21094 4.41846C2.39063 3.95361 2.60938 3.61768 2.95703 3.27002C3.30859 2.91846 3.64063 2.70361 4.10547 2.52393C4.45703 2.38721 4.98828 2.22314 5.96094 2.18018C7.01172 2.1333 7.32813 2.12158 10 2.12158ZM10 0.320801C7.28516 0.320801 6.94531 0.33252 5.87891 0.379395C4.81641 0.42627 4.08594 0.598144 3.45313 0.844238C2.79297 1.10205 2.23438 1.44189 1.67969 2.00049C1.12109 2.55518 0.78125 3.11377 0.523438 3.77002C0.277344 4.40674 0.105469 5.1333 0.0585938 6.1958C0.0117188 7.26611 0 7.60596 0 10.3208C0 13.0356 0.0117188 13.3755 0.0585938 14.4419C0.105469 15.5044 0.277344 16.2349 0.523438 16.8677C0.78125 17.5278 1.12109 18.0864 1.67969 18.6411C2.23438 19.1958 2.79297 19.5396 3.44922 19.7935C4.08594 20.0396 4.8125 20.2114 5.875 20.2583C6.94141 20.3052 7.28125 20.3169 9.99609 20.3169C12.7109 20.3169 13.0508 20.3052 14.1172 20.2583C15.1797 20.2114 15.9102 20.0396 16.543 19.7935C17.1992 19.5396 17.7578 19.1958 18.3125 18.6411C18.8672 18.0864 19.2109 17.5278 19.4648 16.8716C19.7109 16.2349 19.8828 15.5083 19.9297 14.4458C19.9766 13.3794 19.9883 13.0396 19.9883 10.3247C19.9883 7.60986 19.9766 7.27002 19.9297 6.20361C19.8828 5.14111 19.7109 4.41064 19.4648 3.77783C19.2188 3.11377 18.8789 2.55518 18.3203 2.00049C17.7656 1.4458 17.207 1.10205 16.5508 0.848145C15.9141 0.602051 15.1875 0.430176 14.125 0.383301C13.0547 0.33252 12.7148 0.320801 10 0.320801Z" fill="#A4A7AE"/>
<path d="M10 5.18408C7.16406 5.18408 4.86328 7.48486 4.86328 10.3208C4.86328 13.1567 7.16406 15.4575 10 15.4575C12.8359 15.4575 15.1367 13.1567 15.1367 10.3208C15.1367 7.48486 12.8359 5.18408 10 5.18408ZM10 13.6528C8.16016 13.6528 6.66797 12.1606 6.66797 10.3208C6.66797 8.48096 8.16016 6.98877 10 6.98877C11.8398 6.98877 13.332 8.48096 13.332 10.3208C13.332 12.1606 11.8398 13.6528 10 13.6528Z" fill="#A4A7AE"/>
<path d="M16.5391 4.98092C16.5391 5.64498 16 6.18014 15.3398 6.18014C14.6758 6.18014 14.1406 5.64108 14.1406 4.98092C14.1406 4.31685 14.6797 3.7817 15.3398 3.7817C16 3.7817 16.5391 4.32076 16.5391 4.98092Z" fill="#A4A7AE"/>
</g>
<defs>
<clipPath id="clip0_13332_1526">
<rect width="20" height="20" fill="white" transform="translate(0 0.320801)"/>
</clipPath>
</defs>
</svg>
