<svg width="20" height="21" viewBox="0 0 20 21" fill="none" xmlns="http://www.w3.org/2000/svg">
<g clip-path="url(#clip0_13332_1219)">
<path d="M18.5195 0.320801H1.47656C0.660156 0.320801 0 0.965332 0 1.76221V18.8755C0 19.6724 0.660156 20.3208 1.47656 20.3208H18.5195C19.3359 20.3208 20 19.6724 20 18.8794V1.76221C20 0.965332 19.3359 0.320801 18.5195 0.320801ZM5.93359 17.3638H2.96484V7.81689H5.93359V17.3638ZM4.44922 6.51611C3.49609 6.51611 2.72656 5.74658 2.72656 4.79736C2.72656 3.84814 3.49609 3.07861 4.44922 3.07861C5.39844 3.07861 6.16797 3.84814 6.16797 4.79736C6.16797 5.74268 5.39844 6.51611 4.44922 6.51611ZM17.043 17.3638H14.0781V12.7231C14.0781 11.6177 14.0586 10.1919 12.5352 10.1919C10.9922 10.1919 10.7578 11.3989 10.7578 12.645V17.3638H7.79688V7.81689H10.6406V9.12158H10.6797C11.0742 8.37158 12.043 7.57861 13.4844 7.57861C16.4883 7.57861 17.043 9.55518 17.043 12.1255V17.3638V17.3638Z" fill="#A4A7AE"/>
</g>
<defs>
<clipPath id="clip0_13332_1219">
<rect width="20" height="20" fill="white" transform="translate(0 0.320801)"/>
</clipPath>
</defs>
</svg>
