<svg width="20" height="21" viewBox="0 0 20 21" fill="none" xmlns="http://www.w3.org/2000/svg">
<g clip-path="url(#clip0_13332_1762)">
<path d="M14.2269 0.320801H10.8563V13.944C10.8563 15.5672 9.56 16.9005 7.94672 16.9005C6.33345 16.9005 5.03708 15.5672 5.03708 13.944C5.03708 12.3498 6.30465 11.0454 7.86031 10.9875V7.56719C4.4321 7.62513 1.6665 10.4367 1.6665 13.944C1.6665 17.4802 4.48972 20.3208 7.97554 20.3208C11.4613 20.3208 14.2845 17.4512 14.2845 13.944V6.95847C15.5521 7.88602 17.1077 8.43675 18.7498 8.46575V5.04544C16.2147 4.95848 14.2269 2.87152 14.2269 0.320801Z" fill="#A4A7AE"/>
</g>
<defs>
<clipPath id="clip0_13332_1762">
<rect width="20" height="20" fill="white" transform="translate(0 0.320801)"/>
</clipPath>
</defs>
</svg>
