<svg width="60" height="32" viewBox="0 0 60 32" fill="none" xmlns="http://www.w3.org/2000/svg">
<path d="M6 0.5H54C57.0376 0.500001 59.5 2.96243 59.5 6V26C59.5 29.0376 57.0376 31.5 54 31.5H6C2.96243 31.5 0.5 29.0376 0.5 26V6C0.5 2.96243 2.96243 0.5 6 0.5Z" fill="white"/>
<path d="M6 0.5H54C57.0376 0.500001 59.5 2.96243 59.5 6V26C59.5 29.0376 57.0376 31.5 54 31.5H6C2.96243 31.5 0.5 29.0376 0.5 26V6C0.5 2.96243 2.96243 0.5 6 0.5Z" stroke="#D5D7DA"/>
<path d="M18.0278 14.0348C17.9317 13.7332 17.8024 13.4631 17.64 13.2244C17.4809 12.9825 17.2903 12.777 17.0683 12.608C16.8462 12.4356 16.5927 12.3047 16.3076 12.2152C16.0259 12.1257 15.716 12.081 15.3779 12.081C14.8045 12.081 14.2875 12.2285 13.8268 12.5234C13.3661 12.8184 13.0015 13.2509 12.733 13.821C12.4679 14.3878 12.3353 15.0821 12.3353 15.9041C12.3353 16.7294 12.4695 17.4271 12.738 17.9972C13.0065 18.5672 13.3744 18.9998 13.8417 19.2947C14.309 19.5897 14.841 19.7372 15.4376 19.7372C15.9911 19.7372 16.4733 19.6245 16.8843 19.3991C17.2986 19.1738 17.6185 18.8556 17.8438 18.4446C18.0725 18.0303 18.1869 17.5431 18.1869 16.983L18.5846 17.0575H15.6713V15.7898H19.6734V16.9482C19.6734 17.8033 19.4911 18.5457 19.1265 19.1754C18.7652 19.8018 18.2648 20.2857 17.6251 20.6271C16.9887 20.9685 16.2596 21.1392 15.4376 21.1392C14.5162 21.1392 13.7075 20.9271 13.0115 20.5028C12.3187 20.0786 11.7785 19.477 11.3907 18.6982C11.0029 17.916 10.809 16.9879 10.809 15.9141C10.809 15.102 10.9217 14.3729 11.1471 13.7266C11.3725 13.0803 11.689 12.5317 12.0967 12.081C12.5077 11.6269 12.9899 11.2805 13.5434 11.0419C14.1002 10.8 14.7084 10.679 15.368 10.679C15.9182 10.679 16.4303 10.7602 16.9042 10.9226C17.3815 11.085 17.8057 11.3153 18.1769 11.6136C18.5515 11.9119 18.8614 12.2666 19.1066 12.6776C19.3519 13.0852 19.5176 13.5376 19.6038 14.0348H18.0278ZM21.5042 21V13.3636H22.941V14.5767H23.0205C23.1597 14.1657 23.405 13.8426 23.7563 13.6072C24.1109 13.3686 24.512 13.2493 24.9594 13.2493C25.0522 13.2493 25.1616 13.2526 25.2876 13.2592C25.4168 13.2659 25.5179 13.2741 25.5908 13.2841V14.706C25.5312 14.6894 25.4251 14.6712 25.2726 14.6513C25.1202 14.6281 24.9677 14.6165 24.8153 14.6165C24.4639 14.6165 24.1507 14.6911 23.8756 14.8402C23.6038 14.986 23.3884 15.1899 23.2293 15.4517C23.0702 15.7102 22.9907 16.0052 22.9907 16.3366V21H21.5042ZM29.0312 21.169C28.5473 21.169 28.1098 21.0795 27.7187 20.9006C27.3276 20.7183 27.0177 20.4548 26.789 20.1101C26.5636 19.7654 26.4509 19.3428 26.4509 18.8423C26.4509 18.4115 26.5338 18.0568 26.6995 17.7784C26.8652 17.5 27.0889 17.2796 27.3706 17.1172C27.6524 16.9548 27.9672 16.8321 28.3153 16.7493C28.6633 16.6664 29.0179 16.6035 29.3792 16.5604C29.8366 16.5073 30.2078 16.4643 30.4928 16.4311C30.7778 16.3946 30.985 16.3366 31.1143 16.2571C31.2435 16.1776 31.3081 16.0483 31.3081 15.8693V15.8345C31.3081 15.4003 31.1855 15.0639 30.9403 14.8253C30.6983 14.5866 30.337 14.4673 29.8564 14.4673C29.356 14.4673 28.9616 14.5784 28.6732 14.8004C28.3882 15.0192 28.191 15.2628 28.0816 15.5312L26.6846 15.2131C26.8503 14.7491 27.0922 14.3745 27.4104 14.0895C27.7319 13.8011 28.1015 13.5923 28.5191 13.4631C28.9367 13.3305 29.3759 13.2642 29.8366 13.2642C30.1415 13.2642 30.4646 13.3007 30.806 13.3736C31.1507 13.4432 31.4722 13.5724 31.7705 13.7614C32.0721 13.9503 32.319 14.2204 32.5113 14.5717C32.7035 14.9197 32.7996 15.3722 32.7996 15.929V21H31.3479V19.956H31.2883C31.1921 20.1482 31.048 20.3371 30.8557 20.5227C30.6635 20.7083 30.4166 20.8625 30.115 20.9851C29.8134 21.1077 29.4521 21.169 29.0312 21.169ZM29.3543 19.9759C29.7653 19.9759 30.1166 19.8946 30.4083 19.7322C30.7033 19.5698 30.927 19.3577 31.0795 19.0959C31.2352 18.8307 31.3131 18.5473 31.3131 18.2457V17.2614C31.2601 17.3144 31.1573 17.3641 31.0049 17.4105C30.8557 17.4536 30.685 17.4917 30.4928 17.5249C30.3006 17.5547 30.1133 17.5829 29.931 17.6094C29.7487 17.6326 29.5963 17.6525 29.4736 17.669C29.1853 17.7055 28.9218 17.7668 28.6831 17.853C28.4478 17.9392 28.2589 18.0634 28.1164 18.2259C27.9772 18.3849 27.9076 18.5971 27.9076 18.8622C27.9076 19.2301 28.0435 19.5085 28.3153 19.6974C28.587 19.883 28.9334 19.9759 29.3543 19.9759ZM29.2996 12.3445L30.463 10.0526H32.029L30.4878 12.3445H29.2996ZM38.3442 13.3636V14.5568H34.173V13.3636H38.3442ZM35.2916 11.5341H36.7781V18.7578C36.7781 19.0462 36.8212 19.2633 36.9074 19.4091C36.9936 19.5516 37.1046 19.6494 37.2405 19.7024C37.3797 19.7521 37.5305 19.777 37.6929 19.777C37.8122 19.777 37.9166 19.7687 38.0061 19.7521C38.0956 19.7356 38.1652 19.7223 38.2149 19.7124L38.4834 20.9403C38.3972 20.9735 38.2746 21.0066 38.1155 21.0398C37.9564 21.0762 37.7575 21.0961 37.5189 21.0994C37.1278 21.1061 36.7632 21.0365 36.4252 20.8906C36.0871 20.7448 35.8137 20.5194 35.6048 20.2145C35.396 19.9096 35.2916 19.5268 35.2916 19.0661V11.5341ZM39.9885 21V13.3636H41.4751V21H39.9885ZM40.7393 12.1854C40.4807 12.1854 40.2587 12.0992 40.0731 11.9268C39.8908 11.7512 39.7996 11.5424 39.7996 11.3004C39.7996 11.0552 39.8908 10.8464 40.0731 10.674C40.2587 10.4983 40.4807 10.4105 40.7393 10.4105C40.9978 10.4105 41.2182 10.4983 41.4005 10.674C41.5861 10.8464 41.6789 11.0552 41.6789 11.3004C41.6789 11.5424 41.5861 11.7512 41.4005 11.9268C41.2182 12.0992 40.9978 12.1854 40.7393 12.1854ZM49.1972 15.228L47.8499 15.4666C47.7935 15.2943 47.704 15.1302 47.5814 14.9744C47.4621 14.8187 47.2997 14.6911 47.0942 14.5916C46.8887 14.4922 46.6318 14.4425 46.3236 14.4425C45.9027 14.4425 45.5513 14.5369 45.2696 14.7259C44.9879 14.9115 44.847 15.1518 44.847 15.4467C44.847 15.7019 44.9415 15.9074 45.1304 16.0632C45.3193 16.219 45.6243 16.3466 46.0452 16.446L47.2583 16.7244C47.9609 16.8868 48.4846 17.1371 48.8293 17.4751C49.174 17.8132 49.3463 18.2524 49.3463 18.7926C49.3463 19.25 49.2137 19.6577 48.9486 20.0156C48.6868 20.3703 48.3205 20.6487 47.8499 20.8509C47.3825 21.053 46.8406 21.1541 46.2242 21.1541C45.3691 21.1541 44.6714 20.9718 44.1311 20.6072C43.5909 20.2393 43.2594 19.7173 43.1368 19.0412L44.5736 18.8224C44.6631 19.197 44.847 19.4804 45.1254 19.6726C45.4039 19.8615 45.7668 19.956 46.2142 19.956C46.7014 19.956 47.0909 19.8549 47.3825 19.6527C47.6742 19.4472 47.82 19.197 47.82 18.902C47.82 18.6634 47.7306 18.4628 47.5516 18.3004C47.3759 18.138 47.1058 18.0154 46.7412 17.9325L45.4486 17.6491C44.736 17.4867 44.209 17.2282 43.8676 16.8736C43.5296 16.5189 43.3605 16.0698 43.3605 15.5263C43.3605 15.0755 43.4865 14.6811 43.7384 14.343C43.9903 14.005 44.3383 13.7415 44.7824 13.5526C45.2265 13.3603 45.7353 13.2642 46.3087 13.2642C47.134 13.2642 47.7836 13.4432 48.2575 13.8011C48.7315 14.1558 49.0447 14.6314 49.1972 15.228Z" fill="#414651"/>
</svg>
