<svg width="59" height="32" viewBox="0 0 59 32" fill="none" xmlns="http://www.w3.org/2000/svg">
<rect x="0.666626" width="58.1818" height="32" rx="8.72727" fill="#59ACFF"/>
<path d="M14.6932 9.89273C17.3638 9.89273 18.4285 11.6207 18.4285 13.7327C18.4285 15.9844 17.3638 17.7124 14.6932 17.7124H11.307V21.5H8.20011V9.89273H14.6932ZM11.307 15.3385H13.6634C14.7805 15.3385 15.2168 14.6578 15.2168 13.7502C15.2168 12.86 14.7979 12.2491 13.6983 12.2491H11.307V15.3385ZM19.774 21.5V9.89273H22.8809V19.0738H28.0998V21.5H19.774ZM29.0264 17.084V9.89273H32.1158V16.6825C32.1158 18.7073 32.8489 19.2658 34.4373 19.2658C36.0257 19.2658 36.7587 18.7073 36.7587 16.6825V9.89273H39.8307V17.084C39.8307 20.1735 38.0155 21.7793 34.4373 21.7793C30.8591 21.7793 29.0264 20.1909 29.0264 17.084ZM44.1422 17.7298C44.2294 18.6898 44.8578 19.5625 46.4811 19.5625C47.9647 19.5625 48.5232 19.0389 48.5232 18.236C48.5232 17.468 48.0694 17.084 47.1967 16.9618L44.6658 16.6825C42.5712 16.4382 41.3669 15.2513 41.3669 13.2789C41.3669 11.0971 43.0076 9.596 46.3589 9.596C49.9371 9.596 51.3683 11.3065 51.5254 13.3662H48.4883C48.3662 12.4411 47.668 11.8302 46.3589 11.8302C45.172 11.8302 44.4738 12.3015 44.4738 13.0695C44.4738 13.6629 44.8229 14.0993 45.7131 14.204L47.9298 14.4309C50.4782 14.6753 51.6302 15.8796 51.6302 17.9742C51.6302 20.2607 50.1989 21.7967 46.4287 21.7967C42.6062 21.7967 41.2796 19.8069 41.1574 17.7298H44.1422Z" fill="white"/>
</svg>
