<svg width="59" height="31" viewBox="0 0 59 31" fill="none" xmlns="http://www.w3.org/2000/svg">
<rect x="0.333374" width="58.1818" height="31" rx="8.73" fill="url(#paint0_linear_13332_2103)"/>
<path d="M18.485 9.39273C21.1555 9.39273 22.2202 11.1207 22.2202 13.2327C22.2202 15.4844 21.1555 17.2124 18.485 17.2124H15.0988V21H11.9919V9.39273H18.485ZM15.0988 14.8385H17.4551C18.5722 14.8385 19.0086 14.1578 19.0086 13.2502C19.0086 12.36 18.5897 11.7491 17.49 11.7491H15.0988V14.8385ZM33.5846 18.9055C33.5846 19.848 33.6894 20.3367 33.8115 21H30.7046C30.565 20.5287 30.4952 19.8655 30.4952 18.9055V18.4342C30.4952 17.3171 29.7795 16.7935 28.7846 16.7935H26.6726V21H23.5657V9.39273H29.989C32.6072 9.39273 33.8814 10.7367 33.8814 12.6044C33.8814 14.2625 32.8166 15.3796 31.3679 15.6764C32.5723 15.9382 33.5846 16.5491 33.5846 18.2596V18.9055ZM26.6726 14.5942H29.1686C30.2334 14.5942 30.6697 14.1055 30.6697 13.1105C30.6697 12.2029 30.2159 11.7491 29.1861 11.7491H26.6726V14.5942ZM41.0534 21.2793C36.4803 21.2793 34.8221 18.312 34.8221 15.2051C34.8221 12.1505 36.4803 9.096 41.0534 9.096C45.6614 9.096 47.3021 12.168 47.3021 15.2051C47.3021 18.2945 45.6614 21.2793 41.0534 21.2793ZM38.0338 15.2051C38.0338 17.4742 38.6621 18.7833 41.0534 18.7833C43.4796 18.7833 44.0905 17.4742 44.0905 15.2051C44.0905 12.9011 43.4796 11.6095 41.0534 11.6095C38.6621 11.6095 38.0338 12.9011 38.0338 15.2051Z" fill="white"/>
<defs>
<linearGradient id="paint0_linear_13332_2103" x1="0.333374" y1="31" x2="57.6426" y2="-1.53688" gradientUnits="userSpaceOnUse">
<stop stop-color="#23272F"/>
<stop offset="1" stop-color="#333741"/>
</linearGradient>
</defs>
</svg>
