<svg width="103" height="35" viewBox="0 0 103 35" fill="none" xmlns="http://www.w3.org/2000/svg">
<path d="M24.6157 15.4167V18.9587C24.6157 20.0427 24.0358 21.0476 23.0968 21.5879L13.8482 26.9255L15.8844 19.3277C16.1645 18.2799 16.9849 17.4628 18.0326 17.1828L24.6157 15.4167Z" fill="#0072E5"/>
<path d="M24.6156 8.25385V11.7958L18.0358 10.033C16.9881 9.75299 16.171 8.93258 15.8909 7.88483L13.8514 0.283691L23.0967 5.62129C24.039 6.16494 24.6156 7.16656 24.6156 8.25055V8.25385Z" fill="#0072E5"/>
<path d="M14.5235 11.3971C15.456 12.3295 16.5597 13.084 17.7953 13.6079C16.563 14.1351 15.4527 14.8896 14.5202 15.822C13.5878 16.7578 12.876 17.8758 12.3521 19.1147C11.8283 17.8758 11.0277 16.7578 10.092 15.822C9.15628 14.8863 8.05581 14.1384 6.82355 13.6112C8.05581 13.0873 9.16287 12.3328 10.0986 11.4004C11.031 10.4647 11.8283 9.33345 12.3521 8.0946C12.876 9.33345 13.5911 10.4647 14.5268 11.3971H14.5235Z" fill="#0072E5"/>
<path d="M10.7675 0.283691L8.73126 7.88153C8.4512 8.92928 7.63079 9.74969 6.58633 10.0298L0 11.7925V8.25055C0 7.16656 0.579887 6.16164 1.51561 5.62129L10.7675 0.283691Z" fill="#0072E5"/>
<path d="M10.7674 26.9255L1.51885 21.5879C0.579827 21.0443 0.00323486 20.0427 0.00323486 18.9587V15.4167L6.58627 17.1828C7.63403 17.4628 8.45114 18.2832 8.7312 19.3277L10.7674 26.9255Z" fill="#0072E5"/>
<path d="M30.6157 7.03973H36.833C40.8296 7.03973 42.6615 9.96553 42.6615 13.1648C42.6615 16.3641 40.8296 19.3459 36.833 19.3459H30.6157V7.03973ZM36.0949 16.7726C38.3354 16.7726 39.258 15.5338 39.258 13.1648C39.258 10.7958 38.3156 9.61298 36.0949 9.61298H33.8742V16.7759H36.0949V16.7726Z" fill="#F2F9FF"/>
<path d="M43.5873 14.7166C43.5873 12.2356 44.958 9.79419 48.8986 9.79419C52.8392 9.79419 54.1901 12.2356 54.1901 14.7166C54.1901 17.1976 52.8194 19.6391 48.8986 19.6391C44.9778 19.6391 43.5873 17.2141 43.5873 14.7166ZM48.8986 17.1581C50.3977 17.1581 51.0073 16.565 51.0073 14.7166C51.0073 12.8683 50.3977 12.2752 48.8986 12.2752C47.3994 12.2752 46.7701 12.8683 46.7701 14.7166C46.7701 16.565 47.3797 17.1581 48.8986 17.1581Z" fill="#F2F9FF"/>
<path d="M60.2592 9.79419C63.6265 9.79419 65.2574 11.6821 65.3102 13.9951H62.1834C62.1109 12.9045 61.5343 12.2752 60.3152 12.2752C58.9841 12.2752 58.2065 12.8683 58.2065 14.7166C58.2065 16.565 58.9281 17.1581 60.2592 17.1581C61.5903 17.1581 62.1274 16.4365 62.2196 15.4184H65.3464C65.2904 17.6194 63.755 19.6391 60.3119 19.6391C56.48 19.6391 55.0204 17.2141 55.0204 14.7166C55.0204 12.2192 56.4273 9.79419 60.2592 9.79419Z" fill="#F2F9FF"/>
<path d="M67.2539 15.6985V12.4794H65.6263V11.0001L67.5142 10.1665L68.8288 7.85352H70.44V10.094H72.9572V12.4827H70.44V16.8319H72.6607V19.3491H70.9771C68.1468 19.3491 67.2572 18.0905 67.2572 15.7018L67.2539 15.6985Z" fill="#F2F9FF"/>
<path d="M73.7117 14.7166C73.7117 12.2356 75.0824 9.79419 79.023 9.79419C82.9636 9.79419 84.3144 12.2356 84.3144 14.7166C84.3144 17.1976 82.9438 19.6391 79.023 19.6391C75.1021 19.6391 73.7117 17.2141 73.7117 14.7166ZM79.023 17.1581C80.5221 17.1581 81.1317 16.565 81.1317 14.7166C81.1317 12.8683 80.5221 12.2752 79.023 12.2752C77.5238 12.2752 76.8945 12.8683 76.8945 14.7166C76.8945 16.565 77.5041 17.1581 79.023 17.1581Z" fill="#F2F9FF"/>
<path d="M85.5535 10.0907H88.644V11.9424C89.013 10.664 89.7741 9.94244 91.2535 9.94244H92.0311V13.033H90.901C89.382 13.033 88.7363 13.7743 88.7363 15.6425V19.3426H85.5535V10.0907Z" fill="#F2F9FF"/>
<path d="M46.4176 22.1711H49.6201L47.5115 34.4773H41.9795L40.1113 24.8729L38.2596 34.4773H32.7441L30.6157 22.1711H33.8182L35.5941 32.4608L37.6863 22.1711H42.5363L44.645 32.4608L46.4209 22.1711H46.4176Z" fill="#F2F9FF"/>
<path d="M50.7272 22.1711H54.0385V24.0953H50.7272V22.1711ZM50.7832 25.2254H53.966V34.4773H50.7832V25.2254Z" fill="#F2F9FF"/>
<path d="M59.9264 32.8661C60.9643 32.8661 61.3695 32.5333 61.3695 31.9963C61.3695 31.535 61.2015 31.1462 60.1307 31.0144L58.1703 30.7937C56.3746 30.5894 55.4125 29.6273 55.4125 28.0194C55.4125 25.8185 57.3004 24.9289 59.7814 24.9289C62.2624 24.9289 64.1108 25.7987 64.2986 27.9634H61.4124C61.3201 27.2419 60.8193 26.8168 59.8012 26.8168C58.7271 26.8168 58.3218 27.2056 58.3218 27.7229C58.3218 28.1117 58.5426 28.4642 59.4124 28.5565L61.3201 28.741C63.5046 28.9617 64.4107 29.8513 64.4107 31.6273C64.4107 33.4032 63.3201 34.7738 59.877 34.7738C56.4339 34.7738 55.2313 33.2022 55.1588 31.4988H58.0451C58.1209 32.2566 58.7469 32.8694 59.933 32.8694L59.9264 32.8661Z" fill="#F2F9FF"/>
<path d="M65.2704 29.8316C65.2704 27.1496 66.8256 24.9289 70.3774 24.9289C74.1532 24.9289 75.3558 27.3176 75.3558 29.8876C75.3558 30.1841 75.3361 30.4609 75.2998 30.6652H68.361C68.5455 32.1445 69.2868 32.6453 70.4532 32.6453C71.3955 32.6453 71.9721 32.2368 72.2291 31.6833H75.3196C75.0231 33.2747 73.748 34.7738 70.3774 34.7738C66.6213 34.7738 65.2704 32.3686 65.2704 29.8316ZM72.3411 28.8135C72.2291 27.6471 71.6558 27.0178 70.4334 27.0178C69.211 27.0178 68.6015 27.4791 68.3972 28.8135H72.3378H72.3411Z" fill="#F2F9FF"/>
</svg>
