<svg width="142" height="27" viewBox="0 0 142 27" fill="none" xmlns="http://www.w3.org/2000/svg">
<path d="M24.6156 15.1331V18.675C24.6156 19.759 24.0358 20.7639 23.0967 21.3042L13.8482 26.6418L15.8844 19.044C16.1644 17.9963 16.9849 17.1791 18.0326 16.8991L24.6156 15.1331Z" fill="#0072E5"/>
<path d="M24.6156 7.97016V11.5121L18.0358 9.74936C16.9881 9.4693 16.171 8.64889 15.8909 7.60114L13.8514 0L23.0967 5.3376C24.039 5.88124 24.6156 6.88287 24.6156 7.96686V7.97016Z" fill="#0072E5"/>
<path d="M14.5235 11.1134C15.456 12.0458 16.5597 12.8004 17.7953 13.3242C16.563 13.8514 15.4527 14.6059 14.5202 15.5383C13.5878 16.4741 12.876 17.5921 12.3521 18.831C11.8283 17.5921 11.0277 16.4741 10.092 15.5383C9.15628 14.6026 8.05581 13.8547 6.82355 13.3275C8.05581 12.8036 9.16287 12.0491 10.0986 11.1167C11.031 10.181 11.8283 9.04976 12.3521 7.81091C12.876 9.04976 13.5911 10.181 14.5268 11.1134H14.5235Z" fill="#0072E5"/>
<path d="M10.7675 0L8.73126 7.59784C8.4512 8.64559 7.63079 9.466 6.58633 9.74606L0 11.5088V7.96686C0 6.88287 0.579887 5.87795 1.51561 5.3376L10.7675 0Z" fill="#0072E5"/>
<path d="M10.7674 26.6418L1.51883 21.3042C0.579812 20.7606 0.0032196 19.759 0.0032196 18.675V15.1331L6.58626 16.8991C7.63401 17.1791 8.45112 17.9995 8.73118 19.044L10.7674 26.6418Z" fill="#0072E5"/>
<path d="M30.6156 7.02124H36.833C40.8296 7.02124 42.6615 9.94704 42.6615 13.1463C42.6615 16.3456 40.8296 19.3274 36.833 19.3274H30.6156V7.02124ZM36.0949 16.7541C38.3354 16.7541 39.2579 15.5153 39.2579 13.1463C39.2579 10.7773 38.3156 9.59449 36.0949 9.59449H33.8742V16.7574H36.0949V16.7541Z" fill="#001933"/>
<path d="M43.5873 14.6981C43.5873 12.2172 44.958 9.7757 48.8986 9.7757C52.8392 9.7757 54.1901 12.2172 54.1901 14.6981C54.1901 17.1791 52.8194 19.6206 48.8986 19.6206C44.9778 19.6206 43.5873 17.1956 43.5873 14.6981ZM48.8986 17.1396C50.3977 17.1396 51.0073 16.5465 51.0073 14.6981C51.0073 12.8498 50.3977 12.2567 48.8986 12.2567C47.3994 12.2567 46.7701 12.8498 46.7701 14.6981C46.7701 16.5465 47.3797 17.1396 48.8986 17.1396Z" fill="#001933"/>
<path d="M60.2592 9.7757C63.6265 9.7757 65.2574 11.6636 65.3101 13.9766H62.1833C62.1109 12.886 61.5343 12.2567 60.3152 12.2567C58.9841 12.2567 58.2065 12.8498 58.2065 14.6981C58.2065 16.5465 58.9281 17.1396 60.2592 17.1396C61.5903 17.1396 62.1273 16.418 62.2196 15.3999H65.3464C65.2904 17.6009 63.755 19.6206 60.3119 19.6206C56.48 19.6206 55.0204 17.1956 55.0204 14.6981C55.0204 12.2007 56.4273 9.7757 60.2592 9.7757Z" fill="#001933"/>
<path d="M67.2539 15.68V12.4609H65.6263V10.9816L67.5142 10.148L68.8288 7.83502H70.44V10.0755H72.9572V12.4642H70.44V16.8134H72.6607V19.3306H70.977C68.1468 19.3306 67.2572 18.072 67.2572 15.6833L67.2539 15.68Z" fill="#001933"/>
<path d="M73.7117 14.6981C73.7117 12.2172 75.0824 9.7757 79.023 9.7757C82.9636 9.7757 84.3144 12.2172 84.3144 14.6981C84.3144 17.1791 82.9438 19.6206 79.023 19.6206C75.1021 19.6206 73.7117 17.1956 73.7117 14.6981ZM79.023 17.1396C80.5221 17.1396 81.1317 16.5465 81.1317 14.6981C81.1317 12.8498 80.5221 12.2567 79.023 12.2567C77.5238 12.2567 76.8945 12.8498 76.8945 14.6981C76.8945 16.5465 77.5041 17.1396 79.023 17.1396Z" fill="#001933"/>
<path d="M85.5534 10.0722H88.644V11.9239C89.013 10.6455 89.7741 9.92395 91.2535 9.92395H92.031V13.0145H90.9009C89.382 13.0145 88.7362 13.7558 88.7362 15.624V19.3241H85.5534V10.0722Z" fill="#001933"/>
<path d="M112.833 7.01959H116.036L113.927 19.3257H108.395L106.527 9.72134L104.675 19.3257H99.1595L97.0311 7.01959H100.234L102.01 17.3093L104.102 7.01959H108.952L111.06 17.3093L112.836 7.01959H112.833Z" fill="#001933"/>
<path d="M117.143 7.01959H120.454V8.94376H117.143V7.01959ZM117.199 10.0739H120.381V19.3257H117.199V10.0739Z" fill="#001933"/>
<path d="M126.342 17.7146C127.38 17.7146 127.785 17.3818 127.785 16.8447C127.785 16.3834 127.617 15.9947 126.546 15.8629L124.586 15.6421C122.79 15.4378 121.828 14.4757 121.828 12.8679C121.828 10.6669 123.716 9.77734 126.197 9.77734C128.678 9.77734 130.526 10.6472 130.714 12.8119H127.828C127.735 12.0903 127.235 11.6653 126.217 11.6653C125.142 11.6653 124.737 12.0541 124.737 12.5713C124.737 12.9601 124.958 13.3127 125.828 13.4049L127.735 13.5894C129.92 13.8102 130.826 14.6998 130.826 16.4757C130.826 18.2516 129.735 19.6222 126.292 19.6222C122.849 19.6222 121.647 18.0506 121.574 16.3472H124.46C124.536 17.105 125.162 17.7178 126.348 17.7178L126.342 17.7146Z" fill="#001933"/>
<path d="M131.686 14.68C131.686 11.998 133.241 9.77734 136.793 9.77734C140.569 9.77734 141.771 12.1661 141.771 14.736C141.771 15.0326 141.751 15.3093 141.715 15.5136H134.776C134.961 16.993 135.702 17.4938 136.869 17.4938C137.811 17.4938 138.387 17.0852 138.644 16.5317H141.735C141.438 18.1231 140.163 19.6222 136.793 19.6222C133.037 19.6222 131.686 17.217 131.686 14.68ZM138.756 13.6619C138.644 12.4956 138.071 11.8663 136.849 11.8663C135.626 11.8663 135.017 12.3275 134.813 13.6619H138.753H138.756Z" fill="#001933"/>
</svg>
