<svg width="32" height="32" viewBox="0 0 32 32" fill="none" xmlns="http://www.w3.org/2000/svg">
<path d="M16 0.0996094C18.8018 0.0996094 20.8971 0.100515 22.5596 0.236328C24.2207 0.372047 25.4411 0.642266 26.4941 1.17871C28.3569 2.12786 29.8721 3.64305 30.8213 5.50586C31.3577 6.55888 31.628 7.77931 31.7637 9.44043C31.8995 11.1029 31.9004 13.1982 31.9004 16C31.9004 18.8018 31.8995 20.8971 31.7637 22.5596C31.628 24.2207 31.3577 25.4411 30.8213 26.4941C29.8721 28.3569 28.3569 29.8721 26.4941 30.8213C25.4411 31.3577 24.2207 31.628 22.5596 31.7637C20.8971 31.8995 18.8018 31.9004 16 31.9004C13.1982 31.9004 11.1029 31.8995 9.44043 31.7637C7.77931 31.628 6.55888 31.3577 5.50586 30.8213C3.64305 29.8721 2.12786 28.3569 1.17871 26.4941C0.642266 25.4411 0.372047 24.2207 0.236328 22.5596C0.100515 20.8971 0.0996094 18.8018 0.0996094 16C0.0996094 13.1982 0.100515 11.1029 0.236328 9.44043C0.372047 7.77931 0.642266 6.55888 1.17871 5.50586C2.12786 3.64305 3.64305 2.12786 5.50586 1.17871C6.55888 0.642266 7.77931 0.372047 9.44043 0.236328C11.1029 0.100515 13.1982 0.0996094 16 0.0996094Z" fill="#0072E5"/>
<path d="M16 0.0996094C18.8018 0.0996094 20.8971 0.100515 22.5596 0.236328C24.2207 0.372047 25.4411 0.642266 26.4941 1.17871C28.3569 2.12786 29.8721 3.64305 30.8213 5.50586C31.3577 6.55888 31.628 7.77931 31.7637 9.44043C31.8995 11.1029 31.9004 13.1982 31.9004 16C31.9004 18.8018 31.8995 20.8971 31.7637 22.5596C31.628 24.2207 31.3577 25.4411 30.8213 26.4941C29.8721 28.3569 28.3569 29.8721 26.4941 30.8213C25.4411 31.3577 24.2207 31.628 22.5596 31.7637C20.8971 31.8995 18.8018 31.9004 16 31.9004C13.1982 31.9004 11.1029 31.8995 9.44043 31.7637C7.77931 31.628 6.55888 31.3577 5.50586 30.8213C3.64305 29.8721 2.12786 28.3569 1.17871 26.4941C0.642266 25.4411 0.372047 24.2207 0.236328 22.5596C0.100515 20.8971 0.0996094 18.8018 0.0996094 16C0.0996094 13.1982 0.100515 11.1029 0.236328 9.44043C0.372047 7.77931 0.642266 6.55888 1.17871 5.50586C2.12786 3.64305 3.64305 2.12786 5.50586 1.17871C6.55888 0.642266 7.77931 0.372047 9.44043 0.236328C11.1029 0.100515 13.1982 0.0996094 16 0.0996094Z" stroke="#D5D7DA" stroke-width="0.2"/>
<path d="M26 17.2955V20.1733C26 21.054 25.5288 21.8705 24.7659 22.3095L17.2515 26.6463L18.9059 20.4731C19.1335 19.6218 19.8001 18.9579 20.6513 18.7303L26 17.2955Z" fill="#F2F9FF"/>
<path d="M25.9999 11.4757V14.3535L20.654 12.9213C19.8027 12.6937 19.1388 12.0271 18.9112 11.1759L17.2542 5L24.7658 9.33675C25.5315 9.77846 25.9999 10.5923 25.9999 11.473V11.4757Z" fill="#F2F9FF"/>
<path d="M17.8002 14.0296C18.5578 14.7872 19.4546 15.4002 20.4585 15.8258C19.4573 16.2542 18.5552 16.8672 17.7976 17.6248C17.04 18.3851 16.4617 19.2934 16.036 20.3C15.6104 19.2934 14.9599 18.3851 14.1997 17.6248C13.4394 16.8645 12.5453 16.2568 11.5441 15.8285C12.5453 15.4029 13.4448 14.7898 14.205 14.0322C14.9626 13.272 15.6104 12.3529 16.036 11.3463C16.4617 12.3529 17.0426 13.272 17.8029 14.0296H17.8002Z" fill="#F2F9FF"/>
<path d="M14.7485 5L13.0941 11.1732C12.8665 12.0245 12.2 12.691 11.3513 12.9186L6 14.3508V11.473C6 10.5923 6.47115 9.77578 7.23142 9.33675L14.7485 5Z" fill="#F2F9FF"/>
<path d="M14.7484 26.6463L7.23404 22.3095C6.47109 21.8678 6.00262 21.054 6.00262 20.1733V17.2955L11.3513 18.7303C12.2026 18.9579 12.8665 19.6245 13.094 20.4731L14.7484 26.6463Z" fill="#F2F9FF"/>
</svg>
