<svg width="24" height="24" viewBox="0 0 24 24" fill="none" xmlns="http://www.w3.org/2000/svg">
<path d="M6.20474 10.5579C5.7258 8.7696 6.08711 6.80314 7.28867 5.28374M17.7952 10.5578C18.2742 8.76955 17.9129 6.80309 16.7113 5.28369M2.34184 11.5996C1.50389 8.47489 2.20545 5.02326 4.44652 2.44588M21.6547 11.5997C22.4926 8.47493 21.7911 5.0233 19.55 2.44592M12 15V9M5.49999 18.5H9.49999M5.19999 22H18.8C19.9201 22 20.4802 22 20.908 21.782C21.2843 21.5903 21.5903 21.2843 21.782 20.908C22 20.4802 22 19.9201 22 18.8V18.2C22 17.0799 22 16.5198 21.782 16.092C21.5903 15.7157 21.2843 15.4097 20.908 15.218C20.4802 15 19.9201 15 18.8 15H5.19999C4.07989 15 3.51983 15 3.09201 15.218C2.71569 15.4097 2.40973 15.7157 2.21798 16.092C1.99999 16.5198 1.99999 17.0799 1.99999 18.2V18.8C1.99999 19.9201 1.99999 20.4802 2.21798 20.908C2.40973 21.2843 2.71569 21.5903 3.09201 21.782C3.51983 22 4.07989 22 5.19999 22Z" stroke="#A4A7AE" stroke-width="2" stroke-linecap="round" stroke-linejoin="round"/>
</svg>
