<svg width="20" height="20" viewBox="0 0 20 20" fill="none" xmlns="http://www.w3.org/2000/svg">
<g clip-path="url(#clip0_13337_4482)">
<path d="M10 20C15.5228 20 20 15.5228 20 10C20 4.47715 15.5228 0 10 0C4.47715 0 0 4.47715 0 10C0 15.5228 4.47715 20 10 20Z" fill="#6DA544"/>
<path d="M10.0001 3.91341L18.261 10.0004L10.0001 16.0873L1.73926 10.0004L10.0001 3.91341Z" fill="#FFDA44"/>
<path d="M10.0002 13.4782C11.9212 13.4782 13.4785 11.9209 13.4785 9.99994C13.4785 8.07896 11.9212 6.5217 10.0002 6.5217C8.07923 6.5217 6.52197 8.07896 6.52197 9.99994C6.52197 11.9209 8.07923 13.4782 10.0002 13.4782Z" fill="#F0F0F0"/>
<path d="M8.26096 9.78293C7.65611 9.78293 7.0724 9.87492 6.52295 10.0456C6.54729 11.9456 8.09432 13.4786 10.0001 13.4786C11.1785 13.4786 12.2193 12.892 12.8485 11.9955C11.772 10.6479 10.1158 9.78293 8.26096 9.78293Z" fill="#0052B4"/>
<path d="M13.4138 10.6665C13.4557 10.4507 13.4783 10.2281 13.4783 10.0001C13.4783 8.07909 11.921 6.52187 10 6.52187C8.56668 6.52187 7.33621 7.38909 6.80371 8.6273C7.27441 8.52976 7.76176 8.47839 8.26094 8.47839C10.2811 8.47835 12.1087 9.31812 13.4138 10.6665Z" fill="#0052B4"/>
</g>
<defs>
<clipPath id="clip0_13337_4482">
<rect width="20" height="20" fill="white"/>
</clipPath>
</defs>
</svg>
