<svg width="20" height="20" viewBox="0 0 20 20" fill="none" xmlns="http://www.w3.org/2000/svg">
<g clip-path="url(#clip0_13337_4496)">
<path d="M10 20C15.5228 20 20 15.5228 20 10C20 4.47715 15.5228 0 10 0C4.47715 0 0 4.47715 0 10C0 15.5228 4.47715 20 10 20Z" fill="#F0F0F0"/>
<path d="M19.9998 9.99975C19.9998 6.03514 17.6926 2.60952 14.3477 0.99202V19.0074C17.6926 17.39 19.9998 13.9644 19.9998 9.99975Z" fill="#D80027"/>
<path d="M0 9.99975C0 13.9644 2.30723 17.39 5.65219 19.0075V0.99202C2.30723 2.60952 0 6.03514 0 9.99975Z" fill="#6DA544"/>
<path d="M7.3916 9.99938C7.3916 11.4401 8.55957 12.6081 10.0003 12.6081C11.4411 12.6081 12.609 11.4401 12.609 9.99938V9.12981H7.3916V9.99938Z" fill="#6DA544"/>
<path d="M13.4781 8.26116H10.8693C10.8693 7.78092 10.48 7.39159 9.99977 7.39159C9.51953 7.39159 9.1302 7.78092 9.1302 8.26116H6.52148C6.52148 8.74143 6.93981 9.13072 7.42 9.13072H7.39106C7.39106 9.611 7.78035 10.0003 8.26063 10.0003C8.26063 10.4806 8.64992 10.8699 9.1302 10.8699H10.8693C11.3496 10.8699 11.7389 10.4806 11.7389 10.0003C12.2192 10.0003 12.6085 9.611 12.6085 9.13072H12.5795C13.0598 9.13072 13.4781 8.74143 13.4781 8.26116Z" fill="#FF9811"/>
</g>
<defs>
<clipPath id="clip0_13337_4496">
<rect width="20" height="20" fill="white"/>
</clipPath>
</defs>
</svg>
