<svg width="20" height="21" viewBox="0 0 20 21" fill="none" xmlns="http://www.w3.org/2000/svg">
<path fill-rule="evenodd" clip-rule="evenodd" d="M7.92179 2.8354C7.93175 2.84204 7.94175 2.8487 7.95177 2.85539L16.7424 8.71579C16.9967 8.88533 17.2326 9.04252 17.4137 9.1886C17.6027 9.34104 17.8256 9.55244 17.9538 9.86169C18.1233 10.2704 18.1233 10.7298 17.9538 11.1386C17.8256 11.4478 17.6027 11.6592 17.4137 11.8117C17.2326 11.9577 16.9968 12.1149 16.7424 12.2845L7.92182 18.1649C7.61091 18.3722 7.33135 18.5586 7.09413 18.6871C6.85674 18.8158 6.5309 18.9628 6.15059 18.9401C5.66412 18.911 5.21475 18.6705 4.92074 18.2819C4.69089 17.978 4.63246 17.6254 4.60782 17.3565C4.58321 17.0878 4.58323 16.7518 4.58325 16.3782L4.58326 4.65816C4.58326 4.64611 4.58325 4.6341 4.58325 4.62213C4.58323 4.24846 4.58321 3.91246 4.60782 3.64378C4.63246 3.3749 4.69089 3.02224 4.92074 2.71839C5.21475 2.32975 5.66412 2.08925 6.15059 2.0602C6.5309 2.03749 6.85674 2.1845 7.09413 2.31315C7.33134 2.44171 7.6109 2.6281 7.92179 2.8354Z" fill="white"/>
</svg>
